G04 Layer_Color=16711935*
%FSLAX24Y24*%
%MOIN*%
G70*
G01*
G75*
%ADD18C,0.0079*%
%ADD31R,0.0434X0.0356*%
G04:AMPARAMS|DCode=34|XSize=8mil|YSize=8mil|CornerRadius=0mil|HoleSize=0mil|Usage=FLASHONLY|Rotation=0.000|XOffset=0mil|YOffset=0mil|HoleType=Round|Shape=RoundedRectangle|*
%AMROUNDEDRECTD34*
21,1,0.0080,0.0080,0,0,0.0*
21,1,0.0080,0.0080,0,0,0.0*
1,1,0.0000,0.0040,-0.0040*
1,1,0.0000,-0.0040,-0.0040*
1,1,0.0000,-0.0040,0.0040*
1,1,0.0000,0.0040,0.0040*
%
%ADD34ROUNDEDRECTD34*%
G04:AMPARAMS|DCode=35|XSize=8mil|YSize=8mil|CornerRadius=0mil|HoleSize=0mil|Usage=FLASHONLY|Rotation=270.000|XOffset=0mil|YOffset=0mil|HoleType=Round|Shape=RoundedRectangle|*
%AMROUNDEDRECTD35*
21,1,0.0080,0.0080,0,0,270.0*
21,1,0.0080,0.0080,0,0,270.0*
1,1,0.0000,-0.0040,-0.0040*
1,1,0.0000,-0.0040,0.0040*
1,1,0.0000,0.0040,0.0040*
1,1,0.0000,0.0040,-0.0040*
%
%ADD35ROUNDEDRECTD35*%
%ADD36C,0.0080*%
%ADD37R,0.0671X0.0671*%
%ADD38C,0.0671*%
%ADD39R,0.0671X0.0671*%
%ADD40R,0.0356X0.0434*%
%ADD41R,0.0395X0.0434*%
%ADD42R,0.0434X0.0395*%
%ADD43R,0.1025X0.1379*%
%ADD44R,0.1025X0.0474*%
D18*
X453Y551D02*
Y18465D01*
X38927D01*
Y551D02*
Y18465D01*
X453Y551D02*
X38927D01*
D31*
X1331Y6835D02*
D03*
Y7425D02*
D03*
X9206Y6835D02*
D03*
Y7425D02*
D03*
X17080Y6835D02*
D03*
Y7425D02*
D03*
X24954Y6835D02*
D03*
Y7425D02*
D03*
X32828Y6835D02*
D03*
Y7425D02*
D03*
X1331Y16283D02*
D03*
Y16874D02*
D03*
X9206Y16283D02*
D03*
Y16874D02*
D03*
X17080Y16283D02*
D03*
Y16874D02*
D03*
X24954Y16283D02*
D03*
Y16874D02*
D03*
X32828Y16283D02*
D03*
Y16874D02*
D03*
D34*
X3720Y9508D02*
D03*
X11821D02*
D03*
X19685D02*
D03*
X27569D02*
D03*
X35640D02*
D03*
D35*
X7874Y9518D02*
D03*
X15748D02*
D03*
X23632D02*
D03*
X31496D02*
D03*
D36*
X7874Y1260D02*
D03*
Y984D02*
D03*
Y709D02*
D03*
X15748D02*
D03*
Y984D02*
D03*
Y1260D02*
D03*
X23622Y709D02*
D03*
Y984D02*
D03*
Y1260D02*
D03*
X31496Y709D02*
D03*
Y984D02*
D03*
Y1260D02*
D03*
Y18307D02*
D03*
Y18032D02*
D03*
Y17756D02*
D03*
X23622Y18307D02*
D03*
Y18032D02*
D03*
Y17756D02*
D03*
X15748Y18307D02*
D03*
Y18032D02*
D03*
Y17756D02*
D03*
X7874Y18307D02*
D03*
Y18032D02*
D03*
Y17756D02*
D03*
X6890Y9528D02*
D03*
X7205D02*
D03*
X32165Y9508D02*
D03*
X32480D02*
D03*
X8583Y9488D02*
D03*
X15039D02*
D03*
X16457D02*
D03*
X22913D02*
D03*
X24370D02*
D03*
X30748D02*
D03*
D37*
X6713Y5659D02*
D03*
X14587D02*
D03*
X22461D02*
D03*
X30335D02*
D03*
X38209D02*
D03*
X6713Y15108D02*
D03*
X14587D02*
D03*
X22461D02*
D03*
X30335D02*
D03*
X38209D02*
D03*
D38*
X6713Y6659D02*
D03*
X1931Y1230D02*
D03*
X2932D02*
D03*
X3932D02*
D03*
X4931D02*
D03*
X1931Y2230D02*
D03*
X2932D02*
D03*
X3932D02*
D03*
X14587Y6659D02*
D03*
X9806Y1230D02*
D03*
X10806D02*
D03*
X11806D02*
D03*
X12806D02*
D03*
X9806Y2230D02*
D03*
X10806D02*
D03*
X11806D02*
D03*
X22461Y6659D02*
D03*
X17680Y1230D02*
D03*
X18680D02*
D03*
X19680D02*
D03*
X20680D02*
D03*
X17680Y2230D02*
D03*
X18680D02*
D03*
X19680D02*
D03*
X30335Y6659D02*
D03*
X25554Y1230D02*
D03*
X26554D02*
D03*
X27554D02*
D03*
X28554D02*
D03*
X25554Y2230D02*
D03*
X26554D02*
D03*
X27554D02*
D03*
X38209Y6659D02*
D03*
X33428Y1230D02*
D03*
X34428D02*
D03*
X35428D02*
D03*
X36428D02*
D03*
X33428Y2230D02*
D03*
X34428D02*
D03*
X35428D02*
D03*
X6713Y16108D02*
D03*
X1931Y10679D02*
D03*
X2932D02*
D03*
X3932D02*
D03*
X4931D02*
D03*
X1931Y11679D02*
D03*
X2932D02*
D03*
X3932D02*
D03*
X14587Y16108D02*
D03*
X9806Y10679D02*
D03*
X10806D02*
D03*
X11806D02*
D03*
X12806D02*
D03*
X9806Y11679D02*
D03*
X10806D02*
D03*
X11806D02*
D03*
X22461Y16108D02*
D03*
X17680Y10679D02*
D03*
X18680D02*
D03*
X19680D02*
D03*
X20680D02*
D03*
X17680Y11679D02*
D03*
X18680D02*
D03*
X19680D02*
D03*
X30335Y16108D02*
D03*
X25554Y10679D02*
D03*
X26554D02*
D03*
X27554D02*
D03*
X28554D02*
D03*
X25554Y11679D02*
D03*
X26554D02*
D03*
X27554D02*
D03*
X38209Y16108D02*
D03*
X33428Y10679D02*
D03*
X34428D02*
D03*
X35428D02*
D03*
X36428D02*
D03*
X33428Y11679D02*
D03*
X34428D02*
D03*
X35428D02*
D03*
D39*
X4931Y2230D02*
D03*
X12806D02*
D03*
X20680D02*
D03*
X28554D02*
D03*
X36428D02*
D03*
X4931Y11679D02*
D03*
X12806D02*
D03*
X20680D02*
D03*
X28554D02*
D03*
X36428D02*
D03*
D40*
X4577Y6380D02*
D03*
X3986D02*
D03*
X2977Y6330D02*
D03*
X2386D02*
D03*
X2977Y6930D02*
D03*
X2386D02*
D03*
X4927Y7530D02*
D03*
X4336D02*
D03*
X2977D02*
D03*
X2386D02*
D03*
X12451Y6380D02*
D03*
X11860D02*
D03*
X10851Y6330D02*
D03*
X10260D02*
D03*
X10851Y6930D02*
D03*
X10260D02*
D03*
X12801Y7530D02*
D03*
X12210D02*
D03*
X10851D02*
D03*
X10260D02*
D03*
X20325Y6380D02*
D03*
X19734D02*
D03*
X18725Y6330D02*
D03*
X18134D02*
D03*
X18725Y6930D02*
D03*
X18134D02*
D03*
X20675Y7530D02*
D03*
X20084D02*
D03*
X18725D02*
D03*
X18134D02*
D03*
X28199Y6380D02*
D03*
X27608D02*
D03*
X26599Y6330D02*
D03*
X26008D02*
D03*
X26599Y6930D02*
D03*
X26008D02*
D03*
X28549Y7530D02*
D03*
X27958D02*
D03*
X26599D02*
D03*
X26008D02*
D03*
X36073Y6380D02*
D03*
X35482D02*
D03*
X34473Y6330D02*
D03*
X33882D02*
D03*
X34473Y6930D02*
D03*
X33882D02*
D03*
X36423Y7530D02*
D03*
X35832D02*
D03*
X34473D02*
D03*
X33882D02*
D03*
X4577Y15829D02*
D03*
X3986D02*
D03*
X2977Y15779D02*
D03*
X2386D02*
D03*
X2977Y16379D02*
D03*
X2386D02*
D03*
X4927Y16979D02*
D03*
X4336D02*
D03*
X2977D02*
D03*
X2386D02*
D03*
X12451Y15829D02*
D03*
X11860D02*
D03*
X10851Y15779D02*
D03*
X10260D02*
D03*
X10851Y16379D02*
D03*
X10260D02*
D03*
X12801Y16979D02*
D03*
X12210D02*
D03*
X10851D02*
D03*
X10260D02*
D03*
X20325Y15829D02*
D03*
X19734D02*
D03*
X18725Y15779D02*
D03*
X18134D02*
D03*
X18725Y16379D02*
D03*
X18134D02*
D03*
X20675Y16979D02*
D03*
X20084D02*
D03*
X18725D02*
D03*
X18134D02*
D03*
X28199Y15829D02*
D03*
X27608D02*
D03*
X26599Y15779D02*
D03*
X26008D02*
D03*
X26599Y16379D02*
D03*
X26008D02*
D03*
X28549Y16979D02*
D03*
X27958D02*
D03*
X26599D02*
D03*
X26008D02*
D03*
X36073Y15829D02*
D03*
X35482D02*
D03*
X34473Y15779D02*
D03*
X33882D02*
D03*
X34473Y16379D02*
D03*
X33882D02*
D03*
X36423Y16979D02*
D03*
X35832D02*
D03*
X34473D02*
D03*
X33882D02*
D03*
D41*
X4857Y3630D02*
D03*
X4306D02*
D03*
X12731D02*
D03*
X12180D02*
D03*
X20605D02*
D03*
X20054D02*
D03*
X28479D02*
D03*
X27928D02*
D03*
X36353D02*
D03*
X35802D02*
D03*
X4857Y13079D02*
D03*
X4306D02*
D03*
X12731D02*
D03*
X12180D02*
D03*
X20605D02*
D03*
X20054D02*
D03*
X28479D02*
D03*
X27928D02*
D03*
X36353D02*
D03*
X35802D02*
D03*
D42*
X4381Y5306D02*
D03*
Y4754D02*
D03*
X4931Y5306D02*
D03*
Y4754D02*
D03*
X12256Y5306D02*
D03*
Y4754D02*
D03*
X12806Y5306D02*
D03*
Y4754D02*
D03*
X20130Y5306D02*
D03*
Y4754D02*
D03*
X20680Y5306D02*
D03*
Y4754D02*
D03*
X28004Y5306D02*
D03*
Y4754D02*
D03*
X28554Y5306D02*
D03*
Y4754D02*
D03*
X35878Y5306D02*
D03*
Y4754D02*
D03*
X36428Y5306D02*
D03*
Y4754D02*
D03*
X4381Y14754D02*
D03*
Y14203D02*
D03*
X4931Y14754D02*
D03*
Y14203D02*
D03*
X12256Y14754D02*
D03*
Y14203D02*
D03*
X12806Y14754D02*
D03*
Y14203D02*
D03*
X20130Y14754D02*
D03*
Y14203D02*
D03*
X20680Y14754D02*
D03*
Y14203D02*
D03*
X28004Y14754D02*
D03*
Y14203D02*
D03*
X28554Y14754D02*
D03*
Y14203D02*
D03*
X35878Y14754D02*
D03*
Y14203D02*
D03*
X36428Y14754D02*
D03*
Y14203D02*
D03*
D43*
X1140Y4530D02*
D03*
X9014D02*
D03*
X16888D02*
D03*
X24762D02*
D03*
X32636D02*
D03*
X1140Y13979D02*
D03*
X9014D02*
D03*
X16888D02*
D03*
X24762D02*
D03*
X32636D02*
D03*
D44*
X3423Y3624D02*
D03*
Y4530D02*
D03*
Y5435D02*
D03*
X11297Y3624D02*
D03*
Y4530D02*
D03*
Y5435D02*
D03*
X19171Y3624D02*
D03*
Y4530D02*
D03*
Y5435D02*
D03*
X27045Y3624D02*
D03*
Y4530D02*
D03*
Y5435D02*
D03*
X34919Y3624D02*
D03*
Y4530D02*
D03*
Y5435D02*
D03*
X3423Y13073D02*
D03*
Y13979D02*
D03*
Y14884D02*
D03*
X11297Y13073D02*
D03*
Y13979D02*
D03*
Y14884D02*
D03*
X19171Y13073D02*
D03*
Y13979D02*
D03*
Y14884D02*
D03*
X27045Y13073D02*
D03*
Y13979D02*
D03*
Y14884D02*
D03*
X34919Y13073D02*
D03*
Y13979D02*
D03*
Y14884D02*
D03*
M02*
