M48
;Layer_Color=9474304
;FILE_FORMAT=2:4
INCH,LZ
;TYPE=PLATED
T1F00S00C0.0118
T2F00S00C0.0354
;TYPE=NON_PLATED
T3F00S00C0.0197
%
T01
X000689Y000945
Y001732
Y00252
Y003307
X001981Y00363
X002461Y004016
Y004803
X002131Y00523
X00187Y002835
X003996
X004626Y004105
X006181Y00388
Y00343
X006969Y003711
X008563Y003307
Y00252
Y001732
Y000945
X007146Y000866
X009744Y002835
X009856Y00363
X010335Y004016
Y004803
X010006Y00523
X0125Y004105
X014056Y00388
Y00343
X014843Y003711
X016437Y003307
Y00252
Y001732
Y000945
X01502Y000866
X017618Y002835
X01773Y00363
X018209Y004016
Y004803
X01788Y00523
X020374Y004105
X019744Y002835
X01187
X02193Y00343
Y00388
X022717Y003711
X024311Y003307
Y00252
Y001732
Y000945
X022894Y000866
X025492Y002835
X025604Y00363
X026083Y004016
Y004803
X025754Y00523
X028248Y004105
X029804Y00388
Y00343
X030591Y003711
X032185Y003307
Y00252
Y001732
Y000945
X030768Y000866
X033366Y002835
X033478Y00363
X033957Y004016
Y004803
X033628Y00523
X036122Y004105
X035492Y002835
X027618
X037678Y00343
Y00388
X038465Y003711
X038642Y000866
X037707Y00749
X037726Y008701
X038642Y010315
X038465Y013159
X037678Y013329
Y012879
X037707Y016939
X037726Y01815
X036428Y016579
X036122Y015276
X036122Y013553
X035492Y012283
X033366
X033478Y013079
X033957Y013465
Y014252
X033628Y014679
X033428Y016379
X033428Y016979
X033428Y017779
X032185Y017677
Y01689
Y016102
Y015315
Y012756
Y011968
Y011181
Y010394
X030768Y010315
X029852Y008701
X029833Y00749
X028554Y00713
X028248Y005827
X026954Y00693
X027154Y00753
X025554Y00753
X025554Y00693
Y00833
X024311Y008228
Y007441
Y006654
Y005866
X021959Y00749
X021978Y008701
X022894Y010315
X024311Y010394
Y011181
Y011968
Y012756
X025604Y013079
X026083Y013465
Y014252
X025754Y014679
X025554Y016379
X025554Y016979
X025554Y017779
X024311Y017677
Y01689
Y016102
Y015315
X026954Y016379
X027154Y016979
X028554Y016579
X028248Y015276
X028248Y013553
X029804Y013329
Y012879
X030591Y013159
X027618Y012283
X025492
X022717Y013159
X02193Y013329
Y012879
X021959Y016939
X021978Y01815
X029852
X029833Y016939
X035028Y016979
X034828Y016379
X035028Y00753
X034828Y00693
X033428
X033428Y00753
X033428Y00833
X032185Y008228
Y007441
Y006654
Y005866
X036122Y005827
X036428Y00713
X02068
X020374Y005827
X01908Y00693
X01928Y00753
X01768Y00753
X01768Y00693
Y00833
X016437Y008228
Y007441
Y006654
Y005866
X014085Y00749
X014104Y008701
X01502Y010315
X016437Y010394
Y011181
Y011968
Y012756
X01773Y013079
X018209Y013465
Y014252
X01788Y014679
X01768Y016379
X01768Y016979
X01768Y017779
X016437Y017677
Y01689
Y016102
Y015315
X01908Y016379
X01928Y016979
X02068Y016579
X020374Y015276
X020374Y013553
X019744Y012283
X017618
X014843Y013159
X014056Y013329
Y012879
X0125Y013553
X0125Y015276
X012806Y016579
X014085Y016939
X014104Y01815
X011406Y016979
X011206Y016379
X009806
X009806Y016979
X009806Y017779
X008563Y017677
Y01689
Y016102
Y015315
X010006Y014679
X010335Y014252
Y013465
X009856Y013079
X009744Y012283
X008563Y011968
Y012756
Y011181
Y010394
X007146Y010315
X00623Y008701
X006211Y00749
X008563Y007441
Y008228
X009806Y00833
X009806Y00753
X009806Y00693
X011206
X011406Y00753
X012806Y00713
X0125Y005827
X008563Y005866
Y006654
X006969Y013159
X006181Y013329
Y012879
X006211Y016939
X00623Y01815
X01187Y012283
X003996
X004626Y013553
X004626Y015276
X004931Y016579
X003331Y016379
X003532Y016979
X001931Y016979
X001931Y016379
Y017779
X000689Y017677
Y01689
Y016102
Y015315
X002131Y014679
X002461Y014252
Y013465
X001981Y013079
X00187Y012283
X000689Y011968
Y012756
Y011181
Y010394
Y008228
Y007441
Y006654
Y005866
X001931Y00693
X001931Y00753
X001931Y00833
X003532Y00753
X003331Y00693
X004931Y00713
X004626Y005827
T02
X001931Y00123
X002932
X003932
X004931
Y00223
X003932
X002932
X001931
X009806
Y00123
X010806
X011806
X012806
Y00223
X011806
X010806
X01768
Y00123
X01868
X01968
X02068
Y00223
X01968
X01868
X025554
Y00123
X026554
X027554
X028554
Y00223
X027554
X026554
X033428
Y00123
X034428
X035428
X036428
Y00223
X035428
X034428
X038209Y005659
Y006659
Y015108
Y016108
X036428Y011679
Y010679
X035428
X034428
X033428
Y011679
X034428
X035428
X028554
Y010679
X027554
X026554
X025554
Y011679
X026554
X027554
X030335Y015108
Y016108
X022461
Y015108
Y006659
Y005659
X030335
Y006659
X02068Y010679
X01968
X01868
X01768
Y011679
X01868
X01968
X02068
X012806
Y010679
X011806
X010806
X009806
Y011679
X010806
X011806
X014587Y015108
Y016108
X006713
Y015108
Y006659
Y005659
X014587
Y006659
X004931Y010679
X003932
X002932
X001931
Y011679
X002932
X003932
X004931
T03
X007874Y000709
Y000984
Y00126
X015748
Y000984
Y000709
X023622
Y000984
Y00126
X031496
Y000984
Y000709
X032165Y009508
X03248
X030748Y009488
X02437
X022913
X023622Y017756
Y018032
Y018307
X031496
Y018032
Y017756
X015748
Y018032
Y018307
X007874
Y018032
Y017756
X007205Y009528
X00689
X008583Y009488
X015039
X016457
M30
