G04 Layer_Color=8388736*
%FSLAX24Y24*%
%MOIN*%
G70*
G01*
G75*
%ADD18C,0.0079*%
%ADD29R,0.0946X0.0493*%
%ADD30R,0.0474X0.0474*%
%ADD31R,0.0434X0.0356*%
%ADD32R,0.0631X0.0513*%
%ADD33R,0.0671X0.0552*%
G04:AMPARAMS|DCode=34|XSize=8mil|YSize=8mil|CornerRadius=0mil|HoleSize=0mil|Usage=FLASHONLY|Rotation=0.000|XOffset=0mil|YOffset=0mil|HoleType=Round|Shape=RoundedRectangle|*
%AMROUNDEDRECTD34*
21,1,0.0080,0.0080,0,0,0.0*
21,1,0.0080,0.0080,0,0,0.0*
1,1,0.0000,0.0040,-0.0040*
1,1,0.0000,-0.0040,-0.0040*
1,1,0.0000,-0.0040,0.0040*
1,1,0.0000,0.0040,0.0040*
%
%ADD34ROUNDEDRECTD34*%
G04:AMPARAMS|DCode=35|XSize=8mil|YSize=8mil|CornerRadius=0mil|HoleSize=0mil|Usage=FLASHONLY|Rotation=270.000|XOffset=0mil|YOffset=0mil|HoleType=Round|Shape=RoundedRectangle|*
%AMROUNDEDRECTD35*
21,1,0.0080,0.0080,0,0,270.0*
21,1,0.0080,0.0080,0,0,270.0*
1,1,0.0000,-0.0040,-0.0040*
1,1,0.0000,-0.0040,0.0040*
1,1,0.0000,0.0040,0.0040*
1,1,0.0000,0.0040,-0.0040*
%
%ADD35ROUNDEDRECTD35*%
%ADD36C,0.0080*%
%ADD37R,0.0671X0.0671*%
%ADD38C,0.0671*%
%ADD39R,0.0671X0.0671*%
D18*
X453Y551D02*
Y18465D01*
X38927D01*
Y551D02*
Y18465D01*
X453Y551D02*
X38927D01*
D29*
X6742Y8681D02*
D03*
X6752Y7520D02*
D03*
X14616Y8681D02*
D03*
X14626Y7520D02*
D03*
X22490Y8681D02*
D03*
X22500Y7520D02*
D03*
X30364Y8681D02*
D03*
X30374Y7520D02*
D03*
X38238Y8681D02*
D03*
X38248Y7520D02*
D03*
X6742Y18130D02*
D03*
X6752Y16968D02*
D03*
X14616Y18130D02*
D03*
X14626Y16968D02*
D03*
X22490Y18130D02*
D03*
X22500Y16968D02*
D03*
X30364Y18130D02*
D03*
X30374Y16968D02*
D03*
X38238Y18130D02*
D03*
X38248Y16968D02*
D03*
D30*
X6132Y8100D02*
D03*
X14006D02*
D03*
X21880D02*
D03*
X29754D02*
D03*
X37628D02*
D03*
X6132Y17549D02*
D03*
X14006D02*
D03*
X21880D02*
D03*
X29754D02*
D03*
X37628D02*
D03*
D31*
X6512Y4263D02*
D03*
Y4853D02*
D03*
X7012Y4263D02*
D03*
Y4853D02*
D03*
X6281Y885D02*
D03*
Y1475D02*
D03*
X14386Y4263D02*
D03*
Y4853D02*
D03*
X14886Y4263D02*
D03*
Y4853D02*
D03*
X14156Y885D02*
D03*
Y1475D02*
D03*
X22260Y4263D02*
D03*
Y4853D02*
D03*
X22760Y4263D02*
D03*
Y4853D02*
D03*
X22030Y885D02*
D03*
Y1475D02*
D03*
X30134Y4263D02*
D03*
Y4853D02*
D03*
X30634Y4263D02*
D03*
Y4853D02*
D03*
X29904Y885D02*
D03*
Y1475D02*
D03*
X38008Y4263D02*
D03*
Y4853D02*
D03*
X38508Y4263D02*
D03*
Y4853D02*
D03*
X37778Y885D02*
D03*
Y1475D02*
D03*
X6512Y13711D02*
D03*
Y14302D02*
D03*
X7012Y13711D02*
D03*
Y14302D02*
D03*
X6281Y10333D02*
D03*
Y10924D02*
D03*
X14386Y13711D02*
D03*
Y14302D02*
D03*
X14886Y13711D02*
D03*
Y14302D02*
D03*
X14156Y10333D02*
D03*
Y10924D02*
D03*
X22260Y13711D02*
D03*
Y14302D02*
D03*
X22760Y13711D02*
D03*
Y14302D02*
D03*
X22030Y10333D02*
D03*
Y10924D02*
D03*
X30134Y13711D02*
D03*
Y14302D02*
D03*
X30634Y13711D02*
D03*
Y14302D02*
D03*
X29904Y10333D02*
D03*
Y10924D02*
D03*
X38008Y13711D02*
D03*
Y14302D02*
D03*
X38508Y13711D02*
D03*
Y14302D02*
D03*
X37778Y10333D02*
D03*
Y10924D02*
D03*
D32*
X6281Y2625D02*
D03*
Y2035D02*
D03*
X14156Y2625D02*
D03*
Y2035D02*
D03*
X22030Y2625D02*
D03*
Y2035D02*
D03*
X29904Y2625D02*
D03*
Y2035D02*
D03*
X37778Y2625D02*
D03*
Y2035D02*
D03*
X6281Y12074D02*
D03*
Y11483D02*
D03*
X14156Y12074D02*
D03*
Y11483D02*
D03*
X22030Y12074D02*
D03*
Y11483D02*
D03*
X29904Y12074D02*
D03*
Y11483D02*
D03*
X37778Y12074D02*
D03*
Y11483D02*
D03*
D33*
X1331Y8330D02*
D03*
Y7543D02*
D03*
Y6755D02*
D03*
Y5968D02*
D03*
Y5180D02*
D03*
X5662Y4393D02*
D03*
Y5180D02*
D03*
Y5968D02*
D03*
Y6755D02*
D03*
Y7543D02*
D03*
Y8330D02*
D03*
X1331Y4393D02*
D03*
Y3606D02*
D03*
X5662D02*
D03*
X9206Y8330D02*
D03*
Y7543D02*
D03*
Y6755D02*
D03*
Y5968D02*
D03*
Y5180D02*
D03*
X13536Y4393D02*
D03*
Y5180D02*
D03*
Y5968D02*
D03*
Y6755D02*
D03*
Y7543D02*
D03*
Y8330D02*
D03*
X9206Y4393D02*
D03*
Y3606D02*
D03*
X13536D02*
D03*
X17080Y8330D02*
D03*
Y7543D02*
D03*
Y6755D02*
D03*
Y5968D02*
D03*
Y5180D02*
D03*
X21410Y4393D02*
D03*
Y5180D02*
D03*
Y5968D02*
D03*
Y6755D02*
D03*
Y7543D02*
D03*
Y8330D02*
D03*
X17080Y4393D02*
D03*
Y3606D02*
D03*
X21410D02*
D03*
X24954Y8330D02*
D03*
Y7543D02*
D03*
Y6755D02*
D03*
Y5968D02*
D03*
Y5180D02*
D03*
X29284Y4393D02*
D03*
Y5180D02*
D03*
Y5968D02*
D03*
Y6755D02*
D03*
Y7543D02*
D03*
Y8330D02*
D03*
X24954Y4393D02*
D03*
Y3606D02*
D03*
X29284D02*
D03*
X32828Y8330D02*
D03*
Y7543D02*
D03*
Y6755D02*
D03*
Y5968D02*
D03*
Y5180D02*
D03*
X37158Y4393D02*
D03*
Y5180D02*
D03*
Y5968D02*
D03*
Y6755D02*
D03*
Y7543D02*
D03*
Y8330D02*
D03*
X32828Y4393D02*
D03*
Y3606D02*
D03*
X37158D02*
D03*
X1331Y17779D02*
D03*
Y16991D02*
D03*
Y16204D02*
D03*
Y15417D02*
D03*
Y14629D02*
D03*
X5662Y13842D02*
D03*
Y14629D02*
D03*
Y15417D02*
D03*
Y16204D02*
D03*
Y16991D02*
D03*
Y17779D02*
D03*
X1331Y13842D02*
D03*
Y13054D02*
D03*
X5662D02*
D03*
X9206Y17779D02*
D03*
Y16991D02*
D03*
Y16204D02*
D03*
Y15417D02*
D03*
Y14629D02*
D03*
X13536Y13842D02*
D03*
Y14629D02*
D03*
Y15417D02*
D03*
Y16204D02*
D03*
Y16991D02*
D03*
Y17779D02*
D03*
X9206Y13842D02*
D03*
Y13054D02*
D03*
X13536D02*
D03*
X17080Y17779D02*
D03*
Y16991D02*
D03*
Y16204D02*
D03*
Y15417D02*
D03*
Y14629D02*
D03*
X21410Y13842D02*
D03*
Y14629D02*
D03*
Y15417D02*
D03*
Y16204D02*
D03*
Y16991D02*
D03*
Y17779D02*
D03*
X17080Y13842D02*
D03*
Y13054D02*
D03*
X21410D02*
D03*
X24954Y17779D02*
D03*
Y16991D02*
D03*
Y16204D02*
D03*
Y15417D02*
D03*
Y14629D02*
D03*
X29284Y13842D02*
D03*
Y14629D02*
D03*
Y15417D02*
D03*
Y16204D02*
D03*
Y16991D02*
D03*
Y17779D02*
D03*
X24954Y13842D02*
D03*
Y13054D02*
D03*
X29284D02*
D03*
X32828Y17779D02*
D03*
Y16991D02*
D03*
Y16204D02*
D03*
Y15417D02*
D03*
Y14629D02*
D03*
X37158Y13842D02*
D03*
Y14629D02*
D03*
Y15417D02*
D03*
Y16204D02*
D03*
Y16991D02*
D03*
Y17779D02*
D03*
X32828Y13842D02*
D03*
Y13054D02*
D03*
X37158D02*
D03*
D34*
X3720Y9508D02*
D03*
X11821D02*
D03*
X19685D02*
D03*
X27569D02*
D03*
X35640D02*
D03*
D35*
X7874Y9518D02*
D03*
X15748D02*
D03*
X23632D02*
D03*
X31496D02*
D03*
D36*
X7874Y1260D02*
D03*
Y984D02*
D03*
Y709D02*
D03*
X15748D02*
D03*
Y984D02*
D03*
Y1260D02*
D03*
X23622Y709D02*
D03*
Y984D02*
D03*
Y1260D02*
D03*
X31496Y709D02*
D03*
Y984D02*
D03*
Y1260D02*
D03*
Y18307D02*
D03*
Y18032D02*
D03*
Y17756D02*
D03*
X23622Y18307D02*
D03*
Y18032D02*
D03*
Y17756D02*
D03*
X15748Y18307D02*
D03*
Y18032D02*
D03*
Y17756D02*
D03*
X7874Y18307D02*
D03*
Y18032D02*
D03*
Y17756D02*
D03*
X6890Y9528D02*
D03*
X7205D02*
D03*
X32165Y9508D02*
D03*
X32480D02*
D03*
X8583Y9488D02*
D03*
X15039D02*
D03*
X16457D02*
D03*
X22913D02*
D03*
X24370D02*
D03*
X30748D02*
D03*
D37*
X6713Y5659D02*
D03*
X14587D02*
D03*
X22461D02*
D03*
X30335D02*
D03*
X38209D02*
D03*
X6713Y15108D02*
D03*
X14587D02*
D03*
X22461D02*
D03*
X30335D02*
D03*
X38209D02*
D03*
D38*
X6713Y6659D02*
D03*
X1931Y1230D02*
D03*
X2932D02*
D03*
X3932D02*
D03*
X4931D02*
D03*
X1931Y2230D02*
D03*
X2932D02*
D03*
X3932D02*
D03*
X14587Y6659D02*
D03*
X9806Y1230D02*
D03*
X10806D02*
D03*
X11806D02*
D03*
X12806D02*
D03*
X9806Y2230D02*
D03*
X10806D02*
D03*
X11806D02*
D03*
X22461Y6659D02*
D03*
X17680Y1230D02*
D03*
X18680D02*
D03*
X19680D02*
D03*
X20680D02*
D03*
X17680Y2230D02*
D03*
X18680D02*
D03*
X19680D02*
D03*
X30335Y6659D02*
D03*
X25554Y1230D02*
D03*
X26554D02*
D03*
X27554D02*
D03*
X28554D02*
D03*
X25554Y2230D02*
D03*
X26554D02*
D03*
X27554D02*
D03*
X38209Y6659D02*
D03*
X33428Y1230D02*
D03*
X34428D02*
D03*
X35428D02*
D03*
X36428D02*
D03*
X33428Y2230D02*
D03*
X34428D02*
D03*
X35428D02*
D03*
X6713Y16108D02*
D03*
X1931Y10679D02*
D03*
X2932D02*
D03*
X3932D02*
D03*
X4931D02*
D03*
X1931Y11679D02*
D03*
X2932D02*
D03*
X3932D02*
D03*
X14587Y16108D02*
D03*
X9806Y10679D02*
D03*
X10806D02*
D03*
X11806D02*
D03*
X12806D02*
D03*
X9806Y11679D02*
D03*
X10806D02*
D03*
X11806D02*
D03*
X22461Y16108D02*
D03*
X17680Y10679D02*
D03*
X18680D02*
D03*
X19680D02*
D03*
X20680D02*
D03*
X17680Y11679D02*
D03*
X18680D02*
D03*
X19680D02*
D03*
X30335Y16108D02*
D03*
X25554Y10679D02*
D03*
X26554D02*
D03*
X27554D02*
D03*
X28554D02*
D03*
X25554Y11679D02*
D03*
X26554D02*
D03*
X27554D02*
D03*
X38209Y16108D02*
D03*
X33428Y10679D02*
D03*
X34428D02*
D03*
X35428D02*
D03*
X36428D02*
D03*
X33428Y11679D02*
D03*
X34428D02*
D03*
X35428D02*
D03*
D39*
X4931Y2230D02*
D03*
X12806D02*
D03*
X20680D02*
D03*
X28554D02*
D03*
X36428D02*
D03*
X4931Y11679D02*
D03*
X12806D02*
D03*
X20680D02*
D03*
X28554D02*
D03*
X36428D02*
D03*
M02*
